<svg version="1.1" id="Layer_1" xmlns="http://www.w3.org/2000/svg" xmlns:xlink="http://www.w3.org/1999/xlink" x="0px" y="0px"
	 width="100%" viewBox="0 0 1024 512" enable-background="new 0 0 1024 512" xml:space="preserve">

<path fill="#F3F3F3" opacity="1.000000" stroke="none" 
	d="
M583.215698,323.258606 
	C583.058533,322.807098 582.901367,322.355621 581.737183,321.856018 
	C580.137146,320.830627 579.544189,319.853424 578.951233,318.876190 
	C591.849365,310.045715 599.399902,296.999756 606.732239,283.756775 
	C609.030640,279.605591 619.271606,276.272766 626.138916,277.537964 
	C624.599060,280.400421 623.147522,283.098785 621.289001,286.291138 
	C620.671143,287.436768 620.460205,288.088409 620.249268,288.740051 
	C621.019897,288.462860 621.790588,288.185699 622.561218,287.908508 
	C630.374695,282.511749 638.319031,277.212158 647.915649,275.748199 
	C652.095398,275.110596 656.683655,274.924652 660.712524,275.971893 
	C670.085388,278.408112 673.468811,285.842163 669.014709,294.437134 
	C664.751038,302.664612 659.549133,310.405884 654.754883,318.358063 
	C654.412903,318.925262 653.810852,319.431122 653.707214,320.030701 
	C653.145569,323.281860 652.702759,326.553589 652.218994,329.818237 
	C655.684326,330.046417 659.426941,331.232513 662.563110,330.324249 
	C672.206482,327.531494 680.009521,321.347443 686.662720,314.107300 
	C690.257385,310.195526 691.930603,304.570190 695.314819,300.403503 
	C707.854187,284.965118 724.351074,276.431427 744.087280,274.851868 
	C748.973877,274.460815 754.394531,275.762054 758.974365,277.695526 
	C765.702759,280.536011 767.451172,287.579498 762.311157,292.733093 
	C757.156616,297.901215 751.018555,302.951630 744.337769,305.543396 
	C732.674988,310.067810 720.265869,312.668579 708.168762,316.072754 
	C707.220947,316.339447 706.267090,316.584564 705.368408,316.825653 
	C704.404846,324.715179 707.527649,329.483612 714.856995,331.336548 
	C723.626526,333.553558 732.001465,331.477081 740.262329,328.756042 
	C754.814697,323.962646 767.413208,315.678589 779.437134,306.438141 
	C780.530762,305.597717 781.510254,304.212952 781.886108,302.893860 
	C787.503601,283.179962 796.058228,264.713959 805.547424,246.634827 
	C805.755493,246.238342 805.759155,245.734573 806.187866,243.768829 
	C790.822205,243.768829 775.881897,244.226196 760.978699,243.677979 
	C724.896057,242.350708 688.827698,240.618027 652.759583,238.921371 
	C634.314880,238.053696 615.844238,237.353394 597.459290,235.736023 
	C585.604187,234.693100 573.704468,232.850143 562.158142,230.010330 
	C552.707092,227.685822 547.285400,220.181549 547.289856,210.428680 
	C547.294617,200.179520 548.727478,189.930435 549.558105,179.683075 
	C549.648804,178.564209 549.883606,177.457031 549.151794,175.936478 
	C545.865479,181.912079 542.728760,187.976028 539.261780,193.844864 
	C532.060059,206.035828 524.651550,218.089584 512.149780,225.812378 
	C501.676270,232.282272 489.919556,234.818161 477.984344,235.746140 
	C439.334656,238.751175 400.645386,241.247116 361.051636,243.934082 
	C352.005737,244.336639 343.879517,244.744308 335.753326,245.151962 
	C335.759888,245.374985 335.766479,245.597992 335.773041,245.821014 
	C344.214966,245.821014 352.656891,245.821014 361.098816,245.821014 
	C401.571259,245.907898 442.043915,245.955109 482.515930,246.137741 
	C486.980713,246.157898 491.502960,246.628235 495.892914,247.452469 
	C506.836456,249.507141 513.054871,256.525970 512.616028,267.668396 
	C512.291687,275.904327 510.380066,284.079071 509.145203,292.276489 
	C508.960388,293.503387 508.609039,294.705231 509.401031,296.384674 
	C510.675842,293.893402 511.867889,291.355499 513.240784,288.919495 
	C517.625061,281.139984 521.777466,273.207977 526.566528,265.683136 
	C535.434448,251.749573 548.981934,245.380463 564.920715,245.285187 
	C598.498657,245.084457 632.083374,245.604126 665.662048,246.066345 
	C691.981873,246.428650 718.296875,247.141129 744.613464,247.725266 
	C746.733093,247.772324 748.848022,248.030594 751.011841,249.260345 
	C749.479736,249.409470 747.950012,249.654358 746.415100,249.693741 
	C703.779541,250.788101 661.136658,251.651199 618.510742,253.038528 
	C600.566345,253.622543 582.648682,255.185837 564.735596,256.526855 
	C549.494446,257.667816 538.624084,266.143097 529.826050,277.963348 
	C515.760498,296.860657 505.520477,317.894592 495.422638,339.023590 
	C493.722107,342.581818 491.561096,345.920013 489.612854,349.359863 
	C488.856628,349.081970 488.100403,348.804077 487.344177,348.526184 
	C487.555450,346.806458 487.585480,345.041046 488.006042,343.374115 
	C492.140961,326.985687 496.752563,310.702667 500.321564,294.193542 
	C501.769135,287.497375 501.417328,280.299164 501.100647,273.365204 
	C500.758850,265.881714 496.168610,260.887756 489.058380,259.244995 
	C481.816010,257.571747 474.348480,256.304260 466.936249,256.030334 
	C427.489258,254.572571 388.035217,253.169556 348.571075,252.351059 
	C307.264221,251.494339 265.943115,251.329529 224.628647,250.826706 
	C222.498001,250.800766 220.371414,250.440384 217.775497,250.190765 
	C219.898712,245.087067 223.725098,244.485123 227.225220,244.160553 
	C236.656967,243.285995 246.123413,242.750351 255.584518,242.234650 
	C281.991821,240.795288 308.418915,239.675568 334.808838,237.973969 
	C361.161957,236.274734 387.525848,234.489166 413.798615,231.873764 
	C436.568207,229.607086 459.227905,226.207962 481.915527,223.155853 
	C501.550385,220.514404 516.157898,209.686996 527.922241,194.372101 
	C541.040222,177.294952 550.983276,158.375732 560.312988,139.073914 
	C561.472595,136.674774 561.605591,132.444443 566.747009,133.373566 
	C564.903564,141.922424 562.758240,150.239243 561.382385,158.681442 
	C559.808167,168.340652 558.203064,178.087158 557.874207,187.838318 
	C557.121094,210.168579 564.337463,218.976639 586.497681,221.910828 
	C607.034241,224.630020 627.703613,226.514603 648.367065,228.067444 
	C679.020630,230.371017 709.710144,232.245102 740.404053,233.946106 
	C763.822937,235.243927 787.272400,235.989670 810.565674,236.974976 
	C821.666565,218.168304 832.496033,199.370087 848.307556,184.363571 
	C854.309570,178.667099 861.507874,173.790222 868.951538,170.161285 
	C879.057922,165.234207 886.867310,171.089981 886.552551,182.434692 
	C886.282471,192.169006 882.593018,201.003067 877.808105,209.190292 
	C872.048340,219.045654 865.471497,228.423462 859.037781,238.332306 
	C860.288208,238.536545 861.790344,238.960480 863.302917,239.001694 
	C880.777832,239.477814 898.256042,239.843079 915.727661,240.413361 
	C917.429565,240.468903 919.093384,241.694489 920.774841,242.376953 
	C919.361694,243.816589 918.123108,246.218140 916.502075,246.512268 
	C911.968201,247.334930 907.270325,247.607529 902.647644,247.523071 
	C886.657959,247.230881 870.674072,246.611053 854.684082,246.365250 
	C852.846436,246.337006 850.586548,247.451859 849.195068,248.754929 
	C833.902100,263.076294 818.828125,277.631989 803.505737,291.921417 
	C797.164978,297.834686 792.488708,316.965820 795.923035,324.976654 
	C798.646118,331.328552 807.152344,333.615692 815.939453,330.466125 
	C827.086609,326.470673 836.413391,319.682892 845.004395,311.739471 
	C846.105103,310.721710 847.025879,309.409180 848.291748,308.700958 
	C849.347473,308.110291 850.787048,308.205627 852.056580,307.997101 
	C851.778870,309.300049 851.945862,311.045227 851.156311,311.839233 
	C840.079346,322.979523 828.395996,333.326019 813.118469,338.454620 
	C810.614075,339.295349 807.983093,339.854401 805.366211,340.249023 
	C789.320129,342.668915 779.185730,333.817627 779.377808,317.642059 
	C779.391541,316.482758 779.379578,315.323090 779.379578,313.249329 
	C777.171814,314.709167 775.339294,315.881134 773.547302,317.112213 
	C760.371582,326.163483 746.936951,334.754089 731.145142,338.571320 
	C721.485229,340.906342 711.738159,341.462982 702.044861,338.521667 
	C693.483398,335.923737 687.039856,331.325165 686.329041,321.335693 
	C680.149231,325.638245 674.369629,329.939087 668.312622,333.805145 
	C661.604980,338.086456 654.275513,340.535278 646.124817,339.928436 
	C635.806824,339.160248 630.675903,330.685120 635.603943,321.660797 
	C639.737122,314.092194 644.644470,306.949188 649.114319,299.560425 
	C651.555420,295.525330 654.363586,290.830536 650.868652,286.677124 
	C647.535950,282.716553 642.350037,284.632202 638.211670,286.135010 
	C625.882751,290.612213 616.840393,299.527496 609.185242,309.690765 
	C603.710388,316.959412 599.079468,324.902435 594.509094,332.797607 
	C592.186829,336.809265 589.242432,338.443787 584.793518,338.185120 
	C581.705566,338.005615 578.598816,338.150604 574.475403,338.150604 
	C577.502136,332.873962 580.004456,328.511566 582.828552,323.819641 
	C583.150330,323.490051 583.215637,323.258606 583.215698,323.258606 
M845.014709,209.560181 
	C839.151611,218.545532 833.288452,227.530884 827.259399,236.770538 
	C846.199951,240.756897 849.350342,239.581406 859.989807,225.053177 
	C860.382568,224.516937 860.799805,223.998199 861.180603,223.453842 
	C868.245605,213.356277 874.944092,203.016815 877.442139,190.728043 
	C878.009155,187.938568 876.740601,184.775925 876.316895,181.785065 
	C873.463135,182.628922 869.741699,182.613235 867.906433,184.465927 
	C860.112000,192.334488 852.876953,200.757156 845.014709,209.560181 
M717.135132,308.886505 
	C719.612122,307.923218 722.282654,307.283295 724.530457,305.937286 
	C731.897156,301.526215 739.401306,297.242340 746.216309,292.070923 
	C748.452820,290.373779 748.748230,286.118713 749.931335,283.033386 
	C746.706482,282.458191 742.846863,280.468597 740.377380,281.576752 
	C733.369751,284.721375 726.525146,288.591858 720.383301,293.199005 
	C714.500977,297.611481 710.019470,303.615540 706.957886,311.567932 
	C710.665894,310.595490 713.515137,309.848267 717.135132,308.886505 
M812.809875,264.330505 
	C810.094299,270.068939 807.378784,275.807373 804.663208,281.545807 
	C805.188904,281.966309 805.714600,282.386780 806.240295,282.807281 
	C818.449707,270.853027 830.659180,258.898773 843.800415,246.032166 
	C837.034729,245.693802 832.052979,245.577667 827.098450,245.147614 
	C824.067871,244.884552 822.187561,245.799377 820.839417,248.635498 
	C818.424377,253.716034 815.680298,258.640198 812.809875,264.330505 
M585.573547,318.518463 
	C585.573547,318.518463 585.475037,318.574097 585.573547,318.518463 
z"/>
<path fill="#F6F6F6" opacity="1.000000" stroke="none" 
	d="
M122.523819,250.470627 
	C149.656433,200.800858 190.366074,168.909332 244.668106,154.605316 
	C260.775940,150.362244 277.217529,149.285339 292.996979,156.148758 
	C298.018616,158.332993 302.741821,161.781830 306.763184,165.547333 
	C312.337433,170.766922 313.048950,177.682785 311.110565,184.947998 
	C308.863525,193.369934 303.580658,199.670151 296.931702,204.853577 
	C295.601990,205.890167 293.092621,205.413559 291.127197,205.634705 
	C291.382843,203.851547 291.344482,201.960556 291.951294,200.306213 
	C293.536987,195.983170 296.305786,191.903183 296.991486,187.476685 
	C299.064178,174.096420 291.232269,165.085663 276.451660,162.831009 
	C259.861420,160.300293 244.267883,164.272552 229.559875,171.257004 
	C190.539627,189.786728 161.021011,218.305527 142.157715,257.332794 
	C136.582260,268.868134 132.586395,281.064758 132.623917,294.156219 
	C132.694412,318.749969 147.297852,335.258636 171.714859,338.225372 
	C197.098862,341.309601 219.738953,333.438477 240.135361,319.255676 
	C250.001068,312.395508 258.188965,303.159790 267.480896,295.412720 
	C270.041870,293.277496 273.743652,292.120422 277.106750,291.470398 
	C279.472382,291.013153 280.795319,292.858978 279.027740,295.343536 
	C277.876923,296.961243 276.731995,298.597229 275.432190,300.092743 
	C256.263458,322.147675 233.502930,338.993347 205.036346,346.871887 
	C182.016846,353.242920 158.987030,353.822662 136.984390,342.781006 
	C119.871429,334.193176 111.731186,319.461578 110.100655,300.794006 
	C108.525299,282.758087 114.794327,266.609558 122.523819,250.470627 
z"/>
<path fill="#F5F5F5" opacity="1.000000" stroke="none" 
	d="
M383.844421,300.640839 
	C388.518829,294.824890 392.438995,288.078369 398.105103,283.485962 
	C402.681183,279.777039 409.362518,278.665558 415.109924,276.401794 
	C415.436920,277.691284 416.394257,279.256500 415.973267,280.218781 
	C414.686340,283.160614 412.869385,285.870636 412.065277,289.391083 
	C416.270386,286.669403 420.346100,283.715851 424.710632,281.279724 
	C431.451233,277.517395 438.625916,274.942169 446.521393,275.125458 
	C459.567169,275.428314 465.641449,285.028534 459.621918,296.516937 
	C455.239807,304.880280 449.840118,312.708099 445.388214,321.038788 
	C444.137360,323.379425 443.550507,327.246552 444.679260,329.306519 
	C445.540222,330.877747 450.066132,331.899567 452.135315,331.079926 
	C458.673859,328.489685 464.797333,324.864563 471.139893,321.759277 
	C473.149078,320.775635 475.341919,320.167084 477.450714,319.386902 
	C476.280670,321.298431 475.522278,323.730286 473.872559,325.035553 
	C464.427795,332.508148 454.621735,339.387695 441.946075,340.078033 
	C436.198517,340.391052 430.882507,339.290466 427.414124,334.290131 
	C423.880463,329.195709 425.624207,324.103882 428.445648,319.330444 
	C432.921265,311.758453 437.623322,304.318970 442.022522,296.703796 
	C443.779236,293.662933 445.614105,289.487457 442.386108,287.155762 
	C439.893311,285.355042 435.429077,284.894623 432.273682,285.648376 
	C420.620270,288.432098 411.931458,296.148621 404.731384,305.178497 
	C398.027588,313.585968 392.056702,322.631256 386.368866,331.772644 
	C383.579041,336.256409 380.502319,338.640839 375.205383,338.186157 
	C372.449432,337.949585 369.656464,338.144470 365.649567,338.144470 
	C370.870422,329.226166 375.501556,321.315277 380.588867,312.927673 
	C381.587921,311.478180 382.130768,310.505310 382.673645,309.532440 
	C382.338409,309.275360 382.003204,309.018250 381.667969,308.761169 
	C380.838806,309.551361 380.009644,310.341522 379.180481,311.131714 
	C376.098907,313.739594 373.017303,316.347443 369.275696,318.885193 
	C367.301727,318.164307 365.987793,317.513519 364.673859,316.862732 
	C365.880463,315.913025 367.087067,314.963318 368.790497,314.182739 
	C369.859222,313.642334 370.431091,312.932770 371.002930,312.223206 
	C374.361115,309.190155 377.719299,306.157104 381.745972,302.978210 
	C382.891113,302.101837 383.367767,301.371338 383.844421,300.640839 
z"/>
<path fill="#F4F4F4" opacity="1.000000" stroke="none" 
	d="
M364.338562,316.928619 
	C365.987793,317.513519 367.301727,318.164307 368.954224,318.971985 
	C360.093811,324.363678 350.894897,329.598480 341.116150,334.630371 
	C339.689911,334.949005 338.843475,335.470520 337.997070,335.992065 
	C334.915802,336.967102 331.834534,337.942108 328.214661,338.706604 
	C327.103912,338.793182 326.531738,339.090240 325.959564,339.387329 
	C324.896088,339.578705 323.832611,339.770081 322.162598,339.678772 
	C320.691559,339.637299 319.827026,339.878510 318.962494,340.119690 
	C314.929871,340.225952 310.897247,340.332245 306.364166,340.054016 
	C305.260132,339.712006 304.656586,339.754486 304.053009,339.796936 
	C286.365143,338.132751 278.436829,323.653534 288.035278,308.967010 
	C302.903076,286.217834 324.184357,274.474945 351.710693,275.228699 
	C354.568787,275.306946 357.605591,276.367676 360.182251,277.701355 
	C366.148407,280.789520 367.535767,286.250671 363.858551,291.914429 
	C358.419952,300.291107 349.916779,304.763550 340.920105,307.765869 
	C329.023895,311.735809 316.786713,314.683960 304.116211,318.233765 
	C302.617859,324.500793 305.350342,329.249939 312.650208,331.243317 
	C323.317505,334.156250 333.500854,331.686829 343.240814,327.646729 
	C350.402252,324.676147 357.099274,320.585846 364.338562,316.928619 
M347.628265,292.015320 
	C348.314575,291.073822 349.305817,290.223755 349.621368,289.171112 
	C350.212646,287.198700 351.291382,284.638428 350.522919,283.203186 
	C349.786163,281.827148 347.008911,281.390259 345.039703,280.889404 
	C343.987305,280.621674 342.693115,280.914093 341.600647,281.252594 
	C325.599762,286.210480 314.165802,296.599396 305.176331,312.019745 
	C321.495361,308.518951 335.549011,303.283661 347.628265,292.015320 
z"/>
<path fill="#F5F5F5" opacity="1.000000" stroke="none" 
	d="
M578.618286,318.957825 
	C579.544189,319.853424 580.137146,320.830627 581.030090,321.975220 
	C572.662842,329.514099 563.136292,335.457672 552.234070,338.867950 
	C548.966553,339.890045 545.378967,340.555267 541.987366,340.387115 
	C532.459167,339.914795 528.117615,332.472626 532.478333,324.005219 
	C535.430420,318.272980 539.079712,312.895294 542.493225,307.406281 
	C546.865723,300.375214 551.447266,293.470428 555.674377,286.354187 
	C557.780151,282.809265 560.658020,281.303711 564.602417,281.149597 
	C567.813599,281.024109 571.016357,280.682465 575.255615,280.357513 
	C574.115234,282.739288 573.568054,284.227997 572.745972,285.545105 
	C565.474548,297.194824 558.043823,308.747070 550.922058,320.486938 
	C549.009094,323.640320 545.783447,327.025574 549.714233,331.676544 
	C550.720276,332.152130 551.345764,332.126892 551.971313,332.101654 
	C562.223999,330.731720 570.260315,324.896881 578.618286,318.957825 
z"/>
<path fill="#F2F2F2" opacity="1.000000" stroke="none" 
	d="
M567.030518,270.532806 
	C566.941467,262.926697 573.761414,257.439545 580.563965,259.245697 
	C584.007507,260.159973 586.173157,263.027130 584.645874,265.895325 
	C583.020874,268.946930 579.917480,271.806183 576.771240,273.284760 
	C573.656738,274.748444 569.534058,274.953674 567.030518,270.532806 
z"/>
<path fill="#5D5D5D" opacity="1.000000" stroke="none" 
	d="
M361.110840,245.531784 
	C352.656891,245.821014 344.214966,245.821014 335.773041,245.821014 
	C335.766479,245.597992 335.759888,245.374985 335.753326,245.151962 
	C343.879517,244.744308 352.005737,244.336639 360.593506,244.009857 
	C361.077667,244.474670 361.100281,244.858612 361.110840,245.531784 
z"/>
<path fill="#E4E4E4" opacity="1.000000" stroke="none" 
	d="
M379.678894,311.116882 
	C380.009644,310.341522 380.838806,309.551361 381.667969,308.761169 
	C382.003204,309.018250 382.338409,309.275360 382.673645,309.532440 
	C382.130768,310.505310 381.587921,311.478180 380.848755,312.658264 
	C380.494049,312.277679 380.335663,311.689880 379.678894,311.116882 
z"/>
<path fill="#E4E4E4" opacity="1.000000" stroke="none" 
	d="
M338.329834,335.990723 
	C338.843475,335.470520 339.689911,334.949005 340.749207,334.656647 
	C340.195618,335.253662 339.429108,335.621521 338.329834,335.990723 
z"/>
<path fill="#E4E4E4" opacity="1.000000" stroke="none" 
	d="
M319.198730,340.237305 
	C319.827026,339.878510 320.691559,339.637299 321.755310,339.630066 
	C321.114685,340.027649 320.274841,340.191284 319.198730,340.237305 
z"/>
<path fill="#F4F4F4" opacity="1.000000" stroke="none" 
	d="
M370.728638,312.268646 
	C370.431091,312.932770 369.859222,313.642334 369.114349,314.107666 
	C369.445679,313.347015 369.950043,312.830536 370.728638,312.268646 
z"/>
<path fill="#E4E4E4" opacity="1.000000" stroke="none" 
	d="
M383.541138,300.752808 
	C383.367767,301.371338 382.891113,302.101837 382.043457,302.845734 
	C382.194244,302.194336 382.716064,301.529572 383.541138,300.752808 
z"/>
<path fill="#E4E4E4" opacity="1.000000" stroke="none" 
	d="
M551.807739,331.864685 
	C551.345764,332.126892 550.720276,332.152130 550.023682,331.944885 
	C550.516541,331.684174 551.080322,331.655945 551.807739,331.864685 
z"/>
<path fill="#E4E4E4" opacity="1.000000" stroke="none" 
	d="
M326.223602,339.473206 
	C326.531738,339.090240 327.103912,338.793182 327.819885,338.692810 
	C327.471680,339.112732 326.979645,339.335907 326.223602,339.473206 
z"/>
<path fill="#E4E4E4" opacity="1.000000" stroke="none" 
	d="
M304.267181,339.960693 
	C304.656586,339.754486 305.260132,339.712006 305.953186,339.877686 
	C305.522247,340.098724 305.001801,340.111603 304.267181,339.960693 
z"/>
<path fill="#E4E4E4" opacity="1.000000" stroke="none" 
	d="
M583.116699,323.201660 
	C583.215637,323.258606 583.150330,323.490051 583.113037,323.522522 
	C583.075745,323.554962 583.017761,323.144714 583.116699,323.201660 
z"/>




<path fill="#E4E4E4" opacity="1.000000" stroke="none" 
	d="
M585.524292,318.546265 
	C585.475037,318.574097 585.573547,318.518463 585.524292,318.546265 
z"/>

</svg>